<svg xmlns="http://www.w3.org/2000/svg" xmlns:xlink="http://www.w3.org/1999/xlink" width="500" zoomAndPan="magnify" viewBox="0 0 375 374.999991" height="500" preserveAspectRatio="xMidYMid meet" version="1.0"><defs><g/><clipPath id="f12dc07c46"><path d="M 122.746094 94.230469 L 252.496094 94.230469 L 252.496094 218.730469 L 122.746094 218.730469 Z M 122.746094 94.230469 " clip-rule="nonzero"/></clipPath></defs><g clip-path="url(#f12dc07c46)"><path fill="#000000" d="M 252.003906 107.683594 L 252.226562 107.683594 L 252.226562 100.960938 L 227.613281 100.960938 L 227.613281 105.277344 C 227.613281 106.117188 227.507812 106.945312 227.292969 107.757812 C 226.800781 109.476562 225.875 110.917969 224.511719 112.074219 C 224.160156 112.394531 223.78125 112.675781 223.371094 112.917969 L 219.601562 115.671875 L 219.601562 102.523438 C 219.605469 102.226562 219.640625 101.929688 219.703125 101.640625 C 219.765625 101.347656 219.855469 101.066406 219.972656 100.789062 C 220.089844 100.515625 220.230469 100.257812 220.398438 100.011719 C 220.570312 99.761719 220.757812 99.535156 220.972656 99.328125 C 221.183594 99.117188 221.414062 98.929688 221.664062 98.765625 C 221.914062 98.601562 222.175781 98.464844 222.453125 98.351562 C 222.726562 98.238281 223.011719 98.152344 223.304688 98.09375 C 223.597656 98.039062 223.894531 98.007812 224.191406 98.007812 L 224.191406 94.238281 L 150.832031 94.238281 L 150.832031 98.007812 C 151.132812 98.007812 151.433594 98.035156 151.730469 98.09375 C 152.027344 98.148438 152.3125 98.238281 152.59375 98.351562 C 152.875 98.464844 153.140625 98.605469 153.390625 98.773438 C 153.644531 98.941406 153.878906 99.132812 154.089844 99.34375 C 154.304688 99.558594 154.496094 99.789062 154.664062 100.039062 C 154.835938 100.292969 154.976562 100.558594 155.09375 100.835938 C 155.210938 101.117188 155.296875 101.402344 155.355469 101.699219 C 155.414062 101.996094 155.445312 102.296875 155.445312 102.597656 L 155.445312 115.625 L 151.671875 112.871094 C 151.265625 112.625 150.886719 112.34375 150.53125 112.027344 C 149.1875 110.851562 148.277344 109.40625 147.804688 107.683594 C 147.621094 107.019531 147.511719 106.339844 147.480469 105.648438 L 147.480469 100.960938 L 122.722656 100.960938 L 122.722656 107.683594 L 122.996094 107.683594 C 123.59375 107.6875 124.1875 107.75 124.773438 107.867188 C 125.359375 107.988281 125.929688 108.160156 126.484375 108.390625 C 127.039062 108.621094 127.5625 108.902344 128.0625 109.238281 C 128.558594 109.570312 129.019531 109.949219 129.445312 110.371094 C 129.867188 110.792969 130.246094 111.253906 130.582031 111.75 C 130.917969 112.25 131.199219 112.773438 131.433594 113.324219 C 131.664062 113.878906 131.839844 114.449219 131.960938 115.035156 C 132.082031 115.621094 132.144531 116.214844 132.148438 116.8125 L 132.148438 160.355469 C 132.148438 160.957031 132.089844 161.550781 131.972656 162.140625 C 131.855469 162.730469 131.683594 163.304688 131.453125 163.859375 C 131.222656 164.417969 130.941406 164.945312 130.605469 165.445312 C 130.273438 165.945312 129.894531 166.410156 129.46875 166.835938 C 129.042969 167.261719 128.582031 167.644531 128.082031 167.976562 C 127.582031 168.3125 127.054688 168.597656 126.5 168.828125 C 125.945312 169.058594 125.371094 169.234375 124.78125 169.351562 C 124.191406 169.472656 123.597656 169.53125 122.996094 169.535156 L 122.722656 169.535156 L 122.722656 171.566406 L 132.148438 178.414062 L 132.769531 178.886719 L 139.542969 183.847656 L 147.382812 189.554688 L 151.648438 192.65625 L 151.648438 182.730469 L 148.648438 180.550781 C 148.25 180.261719 147.941406 179.898438 147.71875 179.460938 C 147.496094 179.023438 147.382812 178.558594 147.382812 178.066406 L 147.382812 119.617188 L 151.648438 122.71875 L 155.445312 125.496094 L 155.445312 195.410156 L 170.675781 206.523438 L 174.945312 209.625 L 180.726562 213.867188 L 187.5 218.828125 L 194.269531 213.867188 L 204.320312 206.425781 L 219.550781 195.308594 L 219.550781 162.363281 L 204.320312 151.25 L 194.269531 143.929688 L 204.320312 136.660156 L 219.550781 125.546875 L 223.347656 122.769531 L 227.613281 119.667969 L 227.613281 178.117188 C 227.609375 178.605469 227.5 179.066406 227.292969 179.507812 C 227.058594 179.941406 226.746094 180.304688 226.347656 180.597656 L 223.347656 182.78125 L 223.347656 192.707031 L 227.613281 189.605469 L 235.453125 183.800781 L 242.226562 178.835938 L 242.847656 178.367188 L 252.273438 171.519531 L 252.273438 169.484375 L 252.003906 169.484375 C 251.398438 169.484375 250.800781 169.429688 250.207031 169.3125 C 249.617188 169.195312 249.039062 169.023438 248.480469 168.792969 C 247.921875 168.5625 247.394531 168.28125 246.890625 167.945312 C 246.386719 167.609375 245.921875 167.230469 245.496094 166.804688 C 245.066406 166.378906 244.6875 165.914062 244.351562 165.414062 C 244.015625 164.910156 243.730469 164.378906 243.5 163.824219 C 243.265625 163.265625 243.09375 162.691406 242.976562 162.097656 C 242.855469 161.507812 242.796875 160.910156 242.796875 160.304688 L 242.796875 116.8125 C 242.800781 116.210938 242.867188 115.617188 242.988281 115.027344 C 243.109375 114.441406 243.285156 113.867188 243.519531 113.316406 C 243.753906 112.761719 244.039062 112.234375 244.375 111.734375 C 244.710938 111.238281 245.09375 110.777344 245.519531 110.355469 C 245.945312 109.929688 246.410156 109.550781 246.910156 109.21875 C 247.414062 108.886719 247.941406 108.605469 248.496094 108.378906 C 249.054688 108.148438 249.625 107.976562 250.214844 107.859375 C 250.804688 107.742188 251.402344 107.683594 252.003906 107.683594 Z M 204.320312 126.738281 L 187.5 138.992188 L 174.945312 129.839844 L 174.945312 139.761719 L 180.726562 143.980469 L 187.5 148.941406 L 204.320312 161.199219 L 204.320312 196.675781 L 187.5 208.929688 L 174.945312 199.777344 L 170.675781 196.675781 L 170.675781 100.960938 L 204.320312 100.960938 Z M 204.320312 126.738281 " fill-opacity="1" fill-rule="nonzero"/></g><g fill="#000000" fill-opacity="1"><g transform="translate(139.470999, 266.771745)"><g><path d="M 2.578125 -20.484375 L 8.953125 -20.484375 C 11.679688 -20.484375 13.742188 -20.097656 15.140625 -19.328125 C 16.546875 -18.566406 17.25 -17.222656 17.25 -15.296875 C 17.25 -14.523438 17.125 -13.820312 16.875 -13.1875 C 16.625 -12.5625 16.265625 -12.046875 15.796875 -11.640625 C 15.328125 -11.242188 14.757812 -10.988281 14.09375 -10.875 L 14.09375 -10.734375 C 14.769531 -10.585938 15.382812 -10.34375 15.9375 -10 C 16.488281 -9.664062 16.929688 -9.171875 17.265625 -8.515625 C 17.597656 -7.867188 17.765625 -7.007812 17.765625 -5.9375 C 17.765625 -4.695312 17.457031 -3.632812 16.84375 -2.75 C 16.238281 -1.863281 15.375 -1.179688 14.25 -0.703125 C 13.125 -0.234375 11.785156 0 10.234375 0 L 2.578125 0 Z M 6.921875 -12.375 L 9.4375 -12.375 C 10.695312 -12.375 11.566406 -12.570312 12.046875 -12.96875 C 12.535156 -13.363281 12.78125 -13.945312 12.78125 -14.71875 C 12.78125 -15.507812 12.492188 -16.070312 11.921875 -16.40625 C 11.347656 -16.75 10.441406 -16.921875 9.203125 -16.921875 L 6.921875 -16.921875 Z M 6.921875 -8.921875 L 6.921875 -3.59375 L 9.75 -3.59375 C 11.050781 -3.59375 11.957031 -3.84375 12.46875 -4.34375 C 12.988281 -4.84375 13.25 -5.519531 13.25 -6.375 C 13.25 -6.875 13.132812 -7.316406 12.90625 -7.703125 C 12.6875 -8.085938 12.3125 -8.382812 11.78125 -8.59375 C 11.257812 -8.8125 10.535156 -8.921875 9.609375 -8.921875 Z M 6.921875 -8.921875 "/></g></g></g><g fill="#000000" fill-opacity="1"><g transform="translate(158.880947, 266.771745)"><g><path d="M 14.375 0 L 2.578125 0 L 2.578125 -20.484375 L 14.375 -20.484375 L 14.375 -16.921875 L 6.921875 -16.921875 L 6.921875 -12.421875 L 13.859375 -12.421875 L 13.859375 -8.859375 L 6.921875 -8.859375 L 6.921875 -3.59375 L 14.375 -3.59375 Z M 14.375 0 "/></g></g></g><g fill="#000000" fill-opacity="1"><g transform="translate(175.084478, 266.771745)"><g><path d="M 20.75 0 L 15.21875 0 L 6.3125 -15.5 L 6.1875 -15.5 C 6.226562 -14.851562 6.257812 -14.203125 6.28125 -13.546875 C 6.3125 -12.890625 6.34375 -12.238281 6.375 -11.59375 C 6.40625 -10.945312 6.429688 -10.296875 6.453125 -9.640625 L 6.453125 0 L 2.578125 0 L 2.578125 -20.484375 L 8.046875 -20.484375 L 16.953125 -5.140625 L 17.046875 -5.140625 C 17.023438 -5.773438 17 -6.40625 16.96875 -7.03125 C 16.945312 -7.65625 16.921875 -8.28125 16.890625 -8.90625 C 16.867188 -9.53125 16.851562 -10.15625 16.84375 -10.78125 L 16.84375 -20.484375 L 20.75 -20.484375 Z M 20.75 0 "/></g></g></g><g fill="#000000" fill-opacity="1"><g transform="translate(198.540968, 266.771745)"><g><path d="M 10.484375 0 L 6.140625 0 L 6.140625 -16.859375 L 0.578125 -16.859375 L 0.578125 -20.484375 L 16.03125 -20.484375 L 16.03125 -16.859375 L 10.484375 -16.859375 Z M 10.484375 0 "/></g></g></g><g fill="#000000" fill-opacity="1"><g transform="translate(215.290563, 266.771745)"><g><path d="M 21.171875 -10.265625 C 21.171875 -8.691406 20.972656 -7.253906 20.578125 -5.953125 C 20.179688 -4.660156 19.582031 -3.546875 18.78125 -2.609375 C 17.988281 -1.679688 16.976562 -0.96875 15.75 -0.46875 C 14.53125 0.03125 13.085938 0.28125 11.421875 0.28125 C 9.742188 0.28125 8.289062 0.03125 7.0625 -0.46875 C 5.84375 -0.96875 4.832031 -1.679688 4.03125 -2.609375 C 3.238281 -3.546875 2.644531 -4.664062 2.25 -5.96875 C 1.863281 -7.269531 1.671875 -8.710938 1.671875 -10.296875 C 1.671875 -12.410156 2.015625 -14.253906 2.703125 -15.828125 C 3.398438 -17.410156 4.472656 -18.632812 5.921875 -19.5 C 7.367188 -20.363281 9.207031 -20.796875 11.4375 -20.796875 C 13.664062 -20.796875 15.492188 -20.363281 16.921875 -19.5 C 18.359375 -18.632812 19.425781 -17.410156 20.125 -15.828125 C 20.820312 -14.253906 21.171875 -12.398438 21.171875 -10.265625 Z M 6.21875 -10.265625 C 6.21875 -8.835938 6.394531 -7.609375 6.75 -6.578125 C 7.113281 -5.546875 7.675781 -4.75 8.4375 -4.1875 C 9.207031 -3.632812 10.203125 -3.359375 11.421875 -3.359375 C 12.648438 -3.359375 13.644531 -3.632812 14.40625 -4.1875 C 15.175781 -4.75 15.734375 -5.546875 16.078125 -6.578125 C 16.429688 -7.609375 16.609375 -8.835938 16.609375 -10.265625 C 16.609375 -12.410156 16.207031 -14.097656 15.40625 -15.328125 C 14.601562 -16.566406 13.28125 -17.1875 11.4375 -17.1875 C 10.21875 -17.1875 9.222656 -16.90625 8.453125 -16.34375 C 7.679688 -15.789062 7.113281 -15 6.75 -13.96875 C 6.394531 -12.9375 6.21875 -11.703125 6.21875 -10.265625 Z M 6.21875 -10.265625 "/></g></g></g><g fill="#000000" fill-opacity="1"><g transform="translate(152.419375, 236.580512)"><g><path d="M 5.65625 0 L 3.171875 -8.0625 L 3.109375 -8.0625 C 3.117188 -7.875 3.132812 -7.585938 3.15625 -7.203125 C 3.175781 -6.816406 3.195312 -6.40625 3.21875 -5.96875 C 3.238281 -5.53125 3.25 -5.132812 3.25 -4.78125 L 3.25 0 L 1.296875 0 L 1.296875 -10.28125 L 4.265625 -10.28125 L 6.703125 -2.421875 L 6.734375 -2.421875 L 9.328125 -10.28125 L 12.28125 -10.28125 L 12.28125 0 L 10.25 0 L 10.25 -4.875 C 10.25 -5.195312 10.253906 -5.566406 10.265625 -5.984375 C 10.285156 -6.410156 10.300781 -6.8125 10.3125 -7.1875 C 10.332031 -7.570312 10.347656 -7.859375 10.359375 -8.046875 L 10.296875 -8.046875 L 7.640625 0 Z M 5.65625 0 "/></g></g></g><g fill="#000000" fill-opacity="1"><g transform="translate(166.059907, 236.580512)"><g><path d="M 7.59375 0 L 6.84375 -2.453125 L 3.09375 -2.453125 L 2.34375 0 L 0 0 L 3.625 -10.328125 L 6.296875 -10.328125 L 9.9375 0 Z M 6.328125 -4.28125 L 5.578125 -6.671875 C 5.535156 -6.828125 5.472656 -7.03125 5.390625 -7.28125 C 5.316406 -7.53125 5.238281 -7.785156 5.15625 -8.046875 C 5.082031 -8.304688 5.019531 -8.535156 4.96875 -8.734375 C 4.925781 -8.535156 4.863281 -8.296875 4.78125 -8.015625 C 4.695312 -7.734375 4.617188 -7.460938 4.546875 -7.203125 C 4.472656 -6.953125 4.414062 -6.773438 4.375 -6.671875 L 3.640625 -4.28125 Z M 6.328125 -4.28125 "/></g></g></g><g fill="#000000" fill-opacity="1"><g transform="translate(176.060624, 236.580512)"><g><path d="M 5.265625 0 L 3.078125 0 L 3.078125 -8.46875 L 0.28125 -8.46875 L 0.28125 -10.28125 L 8.046875 -10.28125 L 8.046875 -8.46875 L 5.265625 -8.46875 Z M 5.265625 0 "/></g></g></g><g fill="#000000" fill-opacity="1"><g transform="translate(184.466286, 236.580512)"><g><path d="M 9.71875 0 L 7.546875 0 L 7.546875 -4.4375 L 3.46875 -4.4375 L 3.46875 0 L 1.296875 0 L 1.296875 -10.28125 L 3.46875 -10.28125 L 3.46875 -6.25 L 7.546875 -6.25 L 7.546875 -10.28125 L 9.71875 -10.28125 Z M 9.71875 0 "/></g></g></g><g fill="#000000" fill-opacity="1"><g transform="translate(195.54911, 236.580512)"><g><path d="M 7.21875 0 L 1.296875 0 L 1.296875 -10.28125 L 7.21875 -10.28125 L 7.21875 -8.5 L 3.46875 -8.5 L 3.46875 -6.234375 L 6.953125 -6.234375 L 6.953125 -4.453125 L 3.46875 -4.453125 L 3.46875 -1.796875 L 7.21875 -1.796875 Z M 7.21875 0 "/></g></g></g><g fill="#000000" fill-opacity="1"><g transform="translate(203.680731, 236.580512)"><g><path d="M 9.671875 -10.28125 L 9.671875 -3.625 C 9.671875 -2.914062 9.515625 -2.273438 9.203125 -1.703125 C 8.890625 -1.140625 8.414062 -0.691406 7.78125 -0.359375 C 7.15625 -0.0234375 6.363281 0.140625 5.40625 0.140625 C 4.039062 0.140625 3 -0.203125 2.28125 -0.890625 C 1.570312 -1.585938 1.21875 -2.507812 1.21875 -3.65625 L 1.21875 -10.28125 L 3.390625 -10.28125 L 3.390625 -3.984375 C 3.390625 -3.140625 3.5625 -2.546875 3.90625 -2.203125 C 4.257812 -1.859375 4.773438 -1.6875 5.453125 -1.6875 C 5.929688 -1.6875 6.316406 -1.769531 6.609375 -1.9375 C 6.910156 -2.101562 7.128906 -2.351562 7.265625 -2.6875 C 7.410156 -3.03125 7.484375 -3.46875 7.484375 -4 L 7.484375 -10.28125 Z M 9.671875 -10.28125 "/></g></g></g><g fill="#000000" fill-opacity="1"><g transform="translate(214.630049, 236.580512)"><g><path d="M 7.359375 -2.859375 C 7.359375 -2.242188 7.210938 -1.710938 6.921875 -1.265625 C 6.628906 -0.816406 6.195312 -0.46875 5.625 -0.21875 C 5.0625 0.0195312 4.378906 0.140625 3.578125 0.140625 C 3.210938 0.140625 2.859375 0.113281 2.515625 0.0625 C 2.179688 0.0195312 1.859375 -0.046875 1.546875 -0.140625 C 1.234375 -0.234375 0.9375 -0.347656 0.65625 -0.484375 L 0.65625 -2.5 C 1.144531 -2.289062 1.648438 -2.097656 2.171875 -1.921875 C 2.703125 -1.742188 3.226562 -1.65625 3.75 -1.65625 C 4.101562 -1.65625 4.390625 -1.703125 4.609375 -1.796875 C 4.828125 -1.890625 4.984375 -2.019531 5.078125 -2.1875 C 5.171875 -2.351562 5.21875 -2.539062 5.21875 -2.75 C 5.21875 -3.007812 5.128906 -3.226562 4.953125 -3.40625 C 4.785156 -3.59375 4.550781 -3.765625 4.25 -3.921875 C 3.945312 -4.085938 3.609375 -4.257812 3.234375 -4.4375 C 2.992188 -4.550781 2.734375 -4.6875 2.453125 -4.84375 C 2.171875 -5.007812 1.898438 -5.207031 1.640625 -5.4375 C 1.390625 -5.675781 1.179688 -5.960938 1.015625 -6.296875 C 0.859375 -6.628906 0.78125 -7.03125 0.78125 -7.5 C 0.78125 -8.113281 0.921875 -8.640625 1.203125 -9.078125 C 1.484375 -9.515625 1.882812 -9.847656 2.40625 -10.078125 C 2.925781 -10.316406 3.546875 -10.4375 4.265625 -10.4375 C 4.796875 -10.4375 5.300781 -10.375 5.78125 -10.25 C 6.269531 -10.125 6.78125 -9.941406 7.3125 -9.703125 L 6.609375 -8.015625 C 6.140625 -8.203125 5.71875 -8.347656 5.34375 -8.453125 C 4.96875 -8.554688 4.582031 -8.609375 4.1875 -8.609375 C 3.914062 -8.609375 3.679688 -8.566406 3.484375 -8.484375 C 3.296875 -8.398438 3.148438 -8.28125 3.046875 -8.125 C 2.953125 -7.96875 2.90625 -7.785156 2.90625 -7.578125 C 2.90625 -7.328125 2.976562 -7.117188 3.125 -6.953125 C 3.269531 -6.785156 3.484375 -6.625 3.765625 -6.46875 C 4.054688 -6.320312 4.421875 -6.144531 4.859375 -5.9375 C 5.378906 -5.6875 5.828125 -5.425781 6.203125 -5.15625 C 6.578125 -4.882812 6.863281 -4.566406 7.0625 -4.203125 C 7.257812 -3.847656 7.359375 -3.398438 7.359375 -2.859375 Z M 7.359375 -2.859375 "/></g></g></g></svg>